# xmcd
#
# Track frame offsets:
#	150
#	15402
#	25840
#	37950
#	51575
#	64367
#	82985
#	98462
#	117630
#	134372
#	151600
#	165705
#
# Disc length: 2335 seconds
#
# Revision: 2
# Processed by: cddbd v1.5.2PL0 Copyright (c) Steve Scherf et al.
# Submitted via: EZCDAudioConverter 7.1.8.1
#
DISCID=90091d0c
DTITLE=TRIO PARADA DURA - BLUSA VERMELHA [CD 523645 2) EMI
DYEAR=1980
DGENRE=Country
TTITLE0=BLUSA VERMELHA (BY GILMAR SINISTRO)
TTITLE1=SINCERO AMOR (BY GILMAR SINISTRO)
TTITLE2=AVIÃO DAS NOVE (BY GILMAR SINISTRO)
TTITLE3=DROGA DE VIDA (BY GILMAR SINISTRO)
TTITLE4=SOMENTE AGORA EU VEJO (BY GILMAR SINISTRO)
TTITLE5=A MOÇA DO CARRO DE BOI (BY GILMAR SINISTRO)
TTITLE6=NÃO QUERO PIEDADE (BY GILMAR SINISTRO)
TTITLE7=A VAQUINHA (BY GILMAR SINISTRO)
TTITLE8=ENDEREÇO DA FELICIDADE (BY GILMAR SINISTRO)
TTITLE9=PALCO DO MUNDO (BY GILMAR SINISTRO)
TTITLE10=DILEMA DE AMOR (BY GILMAR SINISTRO)
TTITLE11=A HORA NÃO IMPORTA (BY GILMAR SINISTRO)
EXTD=
EXTT0=
EXTT1=
EXTT2=
EXTT3=
EXTT4=
EXTT5=
EXTT6=
EXTT7=
EXTT8=
EXTT9=
EXTT10=
EXTT11=
PLAYORDER=
